# xmcd CD database file
# Copyright (C) 1995 Ti Kan
#
# Track frame offsets:
#	182
#	15045
#	29755
#	48230
#	63902
#	78980
#	90125
#	103477
#	117232
#	131492
#
# Disc length: 1997 seconds
#
# Revision: 1
# Processed by: cddbd v1.4b41PL1 Copyright (c) Steve Scherf et al.
# Submitted via: NotifyCDPlayer(CDDB) 1.05
#
DISCID=7207cb0a
DTITLE=Bellamy Brothers - Best of
DYEAR=1900
DGENRE=
TTITLE0=Let Your Love Flow
TTITLE1=If I Said You Had A Beautiful Body Would You Hold It Against
TTITLE2=Old Hippie
TTITLE3=Kids Of The Baby Boom
TTITLE4=Dancin' Cowboys
TTITLE5=Bird Dog
TTITLE6=Slippin' Away
TTITLE7=Lovin' On
TTITLE8=Ole Faithful
TTITLE9=Satin Sheets
EXTD=
EXTT0=
EXTT1=
EXTT2=
EXTT3=
EXTT4=
EXTT5=
EXTT6=
EXTT7=
EXTT8=
EXTT9=
PLAYORDER=
